<svg width="591" height="419" viewBox="0 0 591 419" fill="none" xmlns="http://www.w3.org/2000/svg">
<path d="M525.788 2.03451C527.371 1.10675 529.335 1.12067 530.905 2.07077L579.961 31.7533C581.468 32.6657 582.385 34.3042 582.373 36.0663L581.981 95.006C581.969 96.7681 581.031 98.3935 579.511 99.2844L530.065 128.269C528.483 129.197 526.518 129.183 524.948 128.233L475.893 98.5503C474.385 97.6379 473.469 95.9993 473.48 94.2373L473.873 35.2975C473.884 33.5355 474.823 31.9101 476.343 31.0191L525.788 2.03451Z" fill="#E49700"/>
<path d="M60.9346 289.995C62.5173 289.067 64.4814 289.081 66.0516 290.031L115.107 319.714C116.615 320.626 117.531 322.265 117.52 324.027L117.127 382.966C117.115 384.729 116.177 386.354 114.657 387.245L65.2114 416.229C63.6287 417.157 61.6646 417.143 60.0944 416.193L11.0392 386.511C9.53136 385.598 8.61473 383.96 8.62646 382.198L9.01887 323.258C9.0306 321.496 9.96896 319.871 11.4888 318.98L60.9346 289.995Z" fill="#7CA950"/>
</svg>
