<?xml version="1.0" encoding="utf-8"?>
<!DOCTYPE svg PUBLIC "-//W3C//DTD SVG 1.1//EN" "http://www.w3.org/Graphics/SVG/1.1/DTD/svg11.dtd">
<svg version="1.1" xmlns="http://www.w3.org/2000/svg" xmlns:xlink="http://www.w3.org/1999/xlink" x="0px" y="0px" viewBox="0 0 1000 1000" fill='#f8f8f8' enable-background="new 0 0 1000 1000" xml:space="preserve">
<g><g transform="translate(0.000000,511.000000) scale(0.100000,-0.100000)"><path d="M1544.7,3881.9c-98.9-31.6-282.7-221.4-312.4-322.3c-13.8-45.5-23.7-195.7-23.7-342v-259H870.5c-207.6,0-371.7-9.9-421.1-23.7c-108.7-31.6-292.6-215.5-324.2-324.2c-33.6-118.6-33.6-5828.3,0-5947c31.6-108.7,215.5-292.6,324.2-324.2c118.6-33.6,8200.8-33.6,8319.4,0c108.7,31.6,292.6,215.5,324.2,324.2c13.8,45.5,23.7,156.2,23.7,247.1l2,166.1l120.6,69.2c156.2,89,379.6,312.4,476.5,476.5c229.4,389.5,245.2,865.9,43.5,1265.3c-25.7,49.4-79.1,132.5-118.6,183.9c-47.5,61.3-65.2,102.8-53.4,116.7c9.9,13.8,77.1,96.9,150.3,185.8l130.5,160.1l-120.6,100.8L9628.9-264l-142.4-174c-77.1-94.9-140.4-174-142.4-177.9c-2-2-53.4,23.7-114.7,59.3l-110.7,65.2l-2,1510.5c0,1121-5.9,1530.2-23.7,1591.5c-31.6,108.7-215.5,292.6-324.2,324.2c-49.4,13.8-213.5,23.7-421.1,23.7h-338.1v259c0,330.2-17.8,393.4-158.2,533.8c-201.7,203.6-438.9,205.6-638.6,3.9c-124.6-124.6-142.4-179.9-148.3-504.2l-5.9-292.6H4607.2H2157.6v259c0,332.1-17.8,393.4-158.2,531.8C1853.1,3897.7,1718.7,3937.2,1544.7,3881.9z M1801.7,3551.7c37.6-37.6,39.5-65.2,39.5-435c0-369.7-2-397.4-39.5-435c-25.7-25.7-65.2-39.5-118.6-39.5s-92.9,13.8-118.6,39.5c-37.6,37.6-39.5,65.2-39.5,435c0,369.7,2,397.4,39.5,435c25.7,25.7,65.2,39.5,118.6,39.5S1776,3577.4,1801.7,3551.7z M7653.8,3551.7c37.6-37.6,39.5-65.2,39.5-435c0-369.7-2-397.4-39.5-435c-25.7-25.7-65.2-39.5-118.6-39.5c-53.4,0-92.9,13.8-118.6,39.5c-37.6,37.6-39.5,65.2-39.5,435c0,369.7,2,397.4,39.5,435c25.7,25.7,65.2,39.5,118.6,39.5C7588.6,3591.2,7628.1,3577.4,7653.8,3551.7z M1297.6,2559.2c83-114.7,181.9-187.8,292.6-217.5c170-45.5,344,33.6,478.5,217.5l59.3,81.1h2481.2h2481.2l59.3-81.1c223.4-306.4,547.6-306.4,771,0l59.3,81.1h371.7c344,2,371.7,0,409.3-37.6c37.6-37.6,39.5-65.2,39.5-474.5v-435H4609.1H417.8v435c0,409.3,2,436.9,39.5,474.5c37.5,37.6,65.2,39.5,411.2,37.6h369.7L1297.6,2559.2z M8800.5,497.2v-877.8l-154.2,11.9c-636.6,47.4-1263.3-436.9-1395.8-1085.4c-39.5-191.8-39.5-314.4,0-506.1c98.9-478.5,450.8-869.9,927.2-1026.1c132.5-43.5,195.7-53.4,391.4-53.4l231.3-2v-124.6c0-96.9-7.9-130.5-39.5-162.1c-39.6-39.5-65.2-39.5-4151.8-39.5c-4086.6,0-4112.3,0-4151.8,39.5s-39.5,65.2-39.5,2372.5V1377h4191.3h4191.3V497.2z M8782.7-698.9c126.5-23.7,359.8-128.5,349.9-158.2c-7.9-23.7-828.4-1028.1-838.3-1028.1c-5.9,0-75.1,45.5-156.2,98.9c-83,55.4-160.1,104.8-176,110.7c-29.7,11.9-199.7-217.5-181.9-245.1c5.9-9.9,134.4-98.8,288.6-201.7c257-170,278.8-181.9,312.4-152.2c17.8,17.8,247.1,294.6,508.1,614.9c261,320.3,484.4,581.3,494.3,577.3c37.6-9.9,146.3-239.2,177.9-371.7c83-367.7-15.8-735.5-264.9-986.6c-488.3-488.3-1364.2-347.9-1652.8,263c-288.6,608.9,15.8,1298.9,648.5,1468.9C8415-677.2,8636.4-671.3,8782.7-698.9z"/><path d="M892.3,428V-46.5h553.6h553.6V428v474.5h-553.6H892.3V428z M1683.1,428V269.8h-237.2h-237.2V428v158.2h237.2h237.2V428z"/><path d="M2473.9,428V-46.5h553.6h553.6V428v474.5h-553.6h-553.6V428z M3264.8,428V269.8h-237.2h-237.2V428v158.2h237.2h237.2V428z"/><path d="M4055.6,428V-46.5h553.6h553.6V428v474.5h-553.6h-553.6V428z M4846.4,428V269.8h-237.2h-237.2V428v158.2h237.2h237.2V428z"/><path d="M5637.2,428V-46.5h553.6h553.6V428v474.5h-553.6h-553.6V428z M6428,428V269.8h-237.2h-237.2V428v158.2h237.2H6428V428z"/><path d="M7218.9,428V-46.5h553.6H8326V428v474.5h-553.6h-553.6V428z M8009.7,428V269.8h-237.2h-237.2V428v158.2h237.2h237.2V428z"/><path d="M892.3-995.5V-1470h553.6h553.6v474.5V-521h-553.6H892.3V-995.5z M1683.1-995.5v-158.2h-237.2h-237.2v158.2v158.2h237.2h237.2V-995.5z"/><path d="M2473.9-995.5V-1470h553.6h553.6v474.5V-521h-553.6h-553.6V-995.5z M3264.8-995.5v-158.2h-237.2h-237.2v158.2v158.2h237.2h237.2V-995.5z"/><path d="M4055.6-995.5V-1470h553.6h553.6v474.5V-521h-553.6h-553.6V-995.5z M4846.4-995.5v-158.2h-237.2h-237.2v158.2v158.2h237.2h237.2V-995.5z"/><path d="M5637.2-995.5V-1470h553.6h553.6v474.5V-521h-553.6h-553.6V-995.5z M6428-995.5v-158.2h-237.2h-237.2v158.2v158.2h237.2H6428V-995.5z"/><path d="M892.3-2419v-474.5h553.6h553.6v474.5v474.5h-553.6H892.3V-2419z M1683.1-2419v-158.2h-237.2h-237.2v158.2v158.2h237.2h237.2V-2419z"/><path d="M2473.9-2419v-474.5h553.6h553.6v474.5v474.5h-553.6h-553.6V-2419z M3264.8-2419v-158.2h-237.2h-237.2v158.2v158.2h237.2h237.2V-2419z"/><path d="M4055.6-2419v-474.5h553.6h553.6v474.5v474.5h-553.6h-553.6V-2419z M4846.4-2419v-158.2h-237.2h-237.2v158.2v158.2h237.2h237.2V-2419z"/><path d="M5637.2-2419v-474.5h553.6h553.6v474.5v474.5h-553.6h-553.6V-2419z M6428-2419v-158.2h-237.2h-237.2v158.2v158.2h237.2H6428V-2419z"/></g></g>
</svg>