<svg width="547" height="486" viewBox="0 0 547 486" fill="none" xmlns="http://www.w3.org/2000/svg">
<path d="M53.91 363.808C55.4631 362.926 57.369 362.939 58.9099 363.843L101.937 389.08C103.478 389.984 104.42 391.641 104.408 393.428L104.065 443.309C104.053 445.096 103.088 446.74 101.535 447.622L58.1652 472.266C56.6121 473.149 54.7061 473.136 53.1653 472.232L10.1377 446.994C8.59685 446.091 7.65521 444.434 7.66748 442.647L8.01008 392.765C8.02235 390.979 8.98665 389.335 10.5398 388.453L53.91 363.808Z" fill="#E49700"/>
<path d="M487.91 374.808C489.463 373.926 491.369 373.939 492.91 374.843L535.937 400.08C537.478 400.984 538.42 402.641 538.408 404.428L538.065 454.309C538.053 456.096 537.088 457.74 535.535 458.622L492.165 483.266C490.612 484.149 488.706 484.136 487.165 483.232L444.138 457.994C442.597 457.091 441.655 455.434 441.667 453.647L442.01 403.765C442.022 401.979 442.987 400.335 444.54 399.453L487.91 374.808Z" fill="#7CA950"/>
<path d="M275.91 1.80842C277.463 0.925901 279.369 0.938991 280.91 1.84276L323.937 27.0804C325.478 27.9841 326.42 29.6413 326.408 31.4276L326.065 81.3094C326.053 83.0957 325.088 84.7397 323.535 85.6222L280.165 110.266C278.612 111.149 276.706 111.136 275.165 110.232L232.138 84.9945C230.597 84.0907 229.655 82.4336 229.667 80.6473L230.01 30.7655C230.022 28.9792 230.987 27.3351 232.54 26.4526L275.91 1.80842Z" fill="#E49700"/>
</svg>
